<?xml version="1.0" encoding="iso-8859-1" ?>
              <svg
                version="1.1"
                xmlns="http://www.w3.org/2000/svg"
                xmlns:xlink="http://www.w3.org/1999/xlink"
                viewBox="0 0 916 610.6666666666666"
                width="916"
                height="610.6666666666666"
              >
                <g transform="translate(0 -29) scale(0.54 0.54) rotate(0 399.75925925925924 299.8148148148148)"><g clip-path="url(#clipPath_wsRH2piPo9a11Jk7YrPD4)"><defs>
          <clipPath id="clipPath_wsRH2piPo9a11Jk7YrPD4">
            <rect x="0" y="0" width="800" height="600" />
          </clipPath>
       </defs> <g style="opacity:0.47;">  <polygon points="140.732,77.42 201.844,77.42 201.844,75.346 138.788,75.346  " fill="#A1C3FC"/>  <polygon points="147.858,87.097 201.844,87.097 201.844,84.332 145.914,84.332  " fill="#A1C3FC"/>  <polygon points="155.308,96.775 201.844,96.775 201.844,94.01 153.364,94.01  " fill="#A1C3FC"/>  <polygon points="162.435,105.761 201.844,105.761 201.844,103.687 160.491,103.687  " fill="#A1C3FC"/>  <polygon points="169.885,115.438 201.844,115.438 201.844,112.673 167.941,112.673  " fill="#A1C3FC"/>  <polygon points="177.011,125.116 201.844,125.116 201.844,122.351 175.067,122.351  " fill="#A1C3FC"/>  <polygon points="184.461,133.411 201.844,133.411 201.844,132.028 182.518,132.028  " fill="#A1C3FC"/>  <polygon points="191.588,143.088 201.844,143.088 201.844,140.323 189.644,140.323  " fill="#A1C3FC"/> </g> <g>  <g>   <path d="M680.78,192.082c-3.885,0-7.044-3.16-7.044-7.044c0-3.885,3.16-7.046,7.044-7.046    c3.885,0,7.046,3.16,7.046,7.046C687.826,188.922,684.666,192.082,680.78,192.082z M680.78,178.961    c-3.35,0-6.075,2.726-6.075,6.076c0,3.35,2.726,6.075,6.075,6.075c3.35,0,6.076-2.726,6.076-6.075    C686.856,181.687,684.131,178.961,680.78,178.961z" fill="#DAE8FE"/>  </g>  <g>   <path d="M680.78,196.207c-6.158,0-11.17-5.011-11.17-11.17c0-6.16,5.011-11.171,11.17-11.171    c6.16,0,11.171,5.011,11.171,11.171C691.951,191.196,686.94,196.207,680.78,196.207z M680.78,174.836    c-5.625,0-10.2,4.577-10.2,10.201s4.575,10.2,10.2,10.2s10.201-4.575,10.201-10.2C690.982,179.413,686.405,174.836,680.78,174.836    z" fill="#DAE8FE"/>  </g>  <g>   <path d="M680.78,200.848c-8.718,0-15.811-7.093-15.811-15.811c0-8.719,7.093-15.812,15.811-15.812    c8.719,0,15.812,7.093,15.812,15.812C696.592,193.755,689.499,200.848,680.78,200.848z M680.78,170.195    c-8.184,0-14.841,6.659-14.841,14.842s6.657,14.841,14.841,14.841s14.842-6.657,14.842-14.841S688.964,170.195,680.78,170.195z" fill="#DAE8FE"/>  </g>  <g>   <path d="M680.78,206.004c-11.562,0-20.968-9.406-20.968-20.967c0-11.562,9.406-20.968,20.968-20.968    s20.968,9.406,20.968,20.968C701.748,196.598,692.342,206.004,680.78,206.004z M680.78,165.039    c-11.027,0-19.998,8.972-19.998,19.998s8.972,19.997,19.999,19.997s19.998-8.97,19.998-19.997    C700.779,174.01,691.807,165.039,680.78,165.039z" fill="#DAE8FE"/>  </g>  <g>   <path d="M680.78,210.645c-14.12,0-25.608-11.488-25.608-25.608c0-14.121,11.488-25.609,25.608-25.609    c14.121,0,25.609,11.488,25.609,25.609C706.389,199.157,694.901,210.645,680.78,210.645z M680.78,160.398    c-13.586,0-24.638,11.053-24.638,24.64c0,13.586,11.052,24.638,24.638,24.638s24.64-11.052,24.64-24.638    C705.42,171.451,694.366,160.398,680.78,160.398z" fill="#DAE8FE"/>  </g> </g> <path d="M459.344,75.731c-36.733-44.708,34.868-29.966,40.927-29.278c29.363,3.337,36.963,8.172,54.056,1.335  c30.031-12.012-40.907-37.066-48.717-37.372c-151.78-5.943-247.979,39.228-398.169,16.523c3.626,13.685,7.251,27.37,10.877,41.055  c-2.328-7.047,3.946-14.628,11.168-16.338c7.222-1.71,3.818,27.47,9.243,22.406c29.084-27.145,99.909,55.482,186.138,77.558  c16.814,4.304,38.114-0.163,45.935-5.729c7.822-5.566,8.609-19.698,3.308-27.702c-1.794-2.708-4.528-4.901-5.41-8.027  c-1.114-3.953,1.166-8.153,4.228-10.889c10.109-9.027,26.029-5.876,38.343-0.217c12.315,5.658,24.707,13.492,38.202,12.248  C462.972,110.06,480.251,101.177,459.344,75.731z" fill="#23286B"/> <path id="texture-2_7_wsRH2piPo9a11Jk7YrPD4" d="M582.379,207.15c-0.083-0.346-0.435-0.555-0.78-0.471  c-0.346,0.083-0.555,0.435-0.471,0.78c0.083,0.346,0.435,0.555,0.78,0.471l0,0C582.253,207.848,582.466,207.499,582.379,207.15  L582.379,207.15z M542.426,154.511c0.19-0.311,0.091-0.718-0.22-0.907l0,0c-0.279-0.182-0.653-0.104-0.834,0.175  c-0.016,0.021-0.031,0.048-0.04,0.075c-0.189,0.295-0.106,0.684,0.187,0.877C541.829,154.913,542.236,154.821,542.426,154.511  L542.426,154.511L542.426,154.511z M560.946,182.472c0.273-0.237,0.326-0.641,0.126-0.94c-0.221-0.294-0.644-0.352-0.94-0.126  c-0.294,0.221-0.352,0.644-0.126,0.94C560.245,182.616,560.645,182.672,560.946,182.472z M643.014,156.602  c0.565-0.383,0.72-1.147,0.348-1.721c-0.339-0.565-1.069-0.749-1.633-0.414c-0.02,0.012-0.039,0.021-0.055,0.036  c-0.565,0.383-0.72,1.147-0.348,1.721C641.686,156.794,642.443,156.964,643.014,156.602L643.014,156.602z M617.962,172.902  c0.568-0.387,0.711-1.159,0.322-1.724c-0.379-0.556-1.134-0.709-1.697-0.342c-0.572,0.362-0.74,1.116-0.378,1.687l0,0  C616.61,173.088,617.373,173.251,617.962,172.902z M592.853,189.205c0.568-0.364,0.733-1.114,0.369-1.683  c-0.008-0.011-0.016-0.023-0.023-0.034c-0.339-0.565-1.069-0.749-1.633-0.414c-0.02,0.012-0.039,0.021-0.055,0.036  c-0.563,0.396-0.728,1.159-0.379,1.753C591.515,189.422,592.281,189.577,592.853,189.205z M653.921,219.598  c-0.144-0.663-0.797-1.082-1.463-0.935c-0.662,0.144-1.081,0.798-0.935,1.463c0.142,0.649,0.776,1.067,1.429,0.942  C653.618,220.921,654.048,220.269,653.921,219.598L653.921,219.598z M624.504,225.067c-0.144-0.663-0.797-1.082-1.463-0.935  c-0.662,0.144-1.081,0.798-0.935,1.463c0.142,0.649,0.776,1.067,1.429,0.942C624.199,226.393,624.631,225.738,624.504,225.067  L624.504,225.067z M592.148,124.03c0.374-0.572,0.225-1.338-0.345-1.721c-0.547-0.384-1.299-0.247-1.683,0.301  c-0.003,0.003-0.005,0.007-0.008,0.01c-0.404,0.516-0.312,1.26,0.203,1.665c0.025,0.019,0.049,0.037,0.078,0.059  C590.973,124.707,591.732,124.575,592.148,124.03z M575.192,148.698c0.368-0.576,0.232-1.338-0.31-1.751  c-0.572-0.374-1.339-0.221-1.721,0.345c-0.383,0.56-0.24,1.327,0.32,1.707c0.007,0.005,0.015,0.011,0.018,0.013  c0.547,0.384,1.299,0.247,1.68-0.297C575.186,148.705,575.189,148.702,575.192,148.698z M558.267,173.331  c0.384-0.531,0.27-1.271-0.261-1.653c-0.015-0.011-0.031-0.023-0.048-0.031c-0.544-0.404-1.313-0.285-1.717,0.259  c-0.013,0.018-0.024,0.032-0.037,0.049c-0.384,0.569-0.234,1.342,0.331,1.723c0.569,0.384,1.342,0.234,1.723-0.331  C558.262,173.338,558.264,173.334,558.267,173.331z M658.516,248.573c-0.056-0.601-0.585-1.049-1.188-1.004  c-0.603,0.05-1.053,0.581-1.004,1.188c0.048,0.606,0.581,1.053,1.188,1.004l0,0C658.113,249.703,658.56,249.176,658.516,248.573z   M606.261,149.766c0.38-0.49,0.312-1.188-0.156-1.596c-0.449-0.382-1.12-0.328-1.503,0.12c-0.011,0.015-0.019,0.025-0.029,0.039  c-0.4,0.458-0.352,1.153,0.108,1.548c0.007,0.005,0.01,0.008,0.018,0.013C605.168,150.262,605.85,150.211,606.261,149.766  L606.261,149.766z M589.12,170.177c0.38-0.467,0.308-1.153-0.153-1.533c-0.449-0.382-1.12-0.328-1.503,0.12  c-0.011,0.015-0.019,0.025-0.029,0.039c-0.4,0.458-0.352,1.153,0.105,1.553c0.007,0.005,0.01,0.008,0.018,0.013  C588.042,170.733,588.734,170.651,589.12,170.177L589.12,170.177z M571.951,190.682c0.4-0.458,0.352-1.153-0.105-1.553  c-0.007-0.005-0.01-0.008-0.018-0.013c-0.424-0.386-1.082-0.35-1.469,0.075c-0.024,0.026-0.046,0.054-0.067,0.082  c-0.4,0.458-0.352,1.153,0.105,1.553c0.007,0.005,0.01,0.008,0.018,0.013C570.887,191.199,571.563,191.133,571.951,190.682  L571.951,190.682z M631.038,202.8c0.529-0.299,0.727-0.966,0.438-1.503c-0.278-0.536-0.933-0.746-1.469-0.469  c-0.534,0.29-0.757,0.948-0.503,1.499C629.802,202.876,630.481,203.084,631.038,202.8L631.038,202.8z M607.337,215.128  c0.527-0.252,0.754-0.883,0.502-1.411c-0.009-0.018-0.021-0.038-0.027-0.059c-0.278-0.536-0.933-0.746-1.469-0.469  c-0.534,0.29-0.757,0.948-0.503,1.499C606.133,215.218,606.799,215.415,607.337,215.128L607.337,215.128z M553.776,135.873  c0.185-0.547-0.107-1.138-0.652-1.327c-0.023-0.007-0.044-0.017-0.063-0.019c-0.572-0.198-1.199,0.106-1.398,0.68  c-0.004,0.012-0.009,0.026-0.011,0.036c-0.157,0.585,0.171,1.192,0.751,1.379c0.569,0.185,1.179-0.131,1.364-0.701  C553.768,135.906,553.769,135.89,553.776,135.873L553.776,135.873z M545.764,161.363c0.18-0.585-0.136-1.21-0.718-1.409  c-0.592-0.169-1.215,0.171-1.383,0.765c-0.164,0.563,0.142,1.159,0.695,1.358c0.563,0.202,1.188-0.092,1.389-0.655  C545.754,161.406,545.76,161.383,545.764,161.363L545.764,161.363z M681.468,231.927c0.607-0.358,0.831-1.125,0.505-1.753  c-0.331-0.619-1.098-0.859-1.719-0.534c-0.615,0.352-0.839,1.129-0.505,1.753C680.081,232.012,680.847,232.252,681.468,231.927  L681.468,231.927z M654.261,246.44c0.623-0.328,0.859-1.098,0.534-1.718c-0.325-0.621-1.098-0.859-1.718-0.534  c-0.623,0.328-0.859,1.098-0.534,1.718C652.871,246.528,653.641,246.765,654.261,246.44L654.261,246.44z M581.764,148.831  c0.187-0.69-0.195-1.404-0.875-1.627c-0.686-0.185-1.394,0.225-1.575,0.915c-0.178,0.664,0.2,1.347,0.851,1.555  C580.838,149.863,581.541,149.495,581.764,148.831L581.764,148.831z M572.81,178.326c0.189-0.672-0.178-1.375-0.842-1.597  c-0.674-0.208-1.389,0.168-1.597,0.842c-0.208,0.674,0.168,1.389,0.842,1.597C571.885,179.363,572.593,178.988,572.81,178.326  L572.81,178.326z M632.364,193.038c0.417-0.561,0.333-1.349-0.184-1.817c-0.556-0.424-1.348-0.328-1.786,0.217  c-0.451,0.525-0.393,1.316,0.136,1.768c0.007,0.005,0.015,0.011,0.021,0.016C631.099,193.676,631.908,193.592,632.364,193.038  C632.362,193.042,632.364,193.038,632.364,193.038L632.364,193.038z M612.78,216.886c0.449-0.553,0.367-1.363-0.18-1.814  c0,0,0,0-0.003-0.003c-0.532-0.433-1.32-0.351-1.75,0.183l0,0c-0.444,0.54-0.37,1.338,0.167,1.781  C611.54,217.482,612.33,217.411,612.78,216.886L612.78,216.886z M651.53,201.978c0.449-0.531,0.381-1.331-0.154-1.782  c-0.535-0.453-1.331-0.381-1.783,0.153c-0.435,0.521-0.386,1.293,0.117,1.75C650.251,202.567,651.062,202.512,651.53,201.978  L651.53,201.978z M631.074,224.888c0.465-0.536,0.41-1.347-0.124-1.815c-0.524-0.444-1.309-0.403-1.785,0.091  c-0.46,0.545-0.419,1.351,0.09,1.846C629.799,225.463,630.597,225.404,631.074,224.888L631.074,224.888z M590.011,183.539  c0.218-0.672-0.144-1.398-0.812-1.63c-0.657-0.223-1.373,0.124-1.596,0.781c-0.252,0.636,0.059,1.357,0.695,1.609  c0.017,0.008,0.033,0.015,0.053,0.017c0.658,0.252,1.395-0.079,1.643-0.741C590.003,183.566,590.008,183.554,590.011,183.539  L590.011,183.539z" fill="#A1C3FC"/> <path id="texture-2_8_wsRH2piPo9a11Jk7YrPD4" d="M644.563,74.888c-0.068-0.281-0.355-0.452-0.635-0.384  c-0.281,0.068-0.452,0.355-0.383,0.636c0.068,0.281,0.355,0.452,0.635,0.384l0,0C644.46,75.456,644.634,75.172,644.563,74.888  L644.563,74.888z M612.019,32.01c0.155-0.254,0.074-0.585-0.179-0.739l0,0c-0.227-0.148-0.532-0.084-0.68,0.142  c-0.013,0.017-0.026,0.039-0.032,0.061c-0.153,0.241-0.086,0.557,0.153,0.715C611.533,32.339,611.865,32.263,612.019,32.01  L612.019,32.01L612.019,32.01z M627.104,54.787c0.222-0.194,0.266-0.522,0.102-0.766c-0.18-0.239-0.525-0.287-0.766-0.102  c-0.239,0.18-0.287,0.525-0.102,0.766C626.534,54.904,626.86,54.949,627.104,54.787z M693.953,33.714  c0.46-0.312,0.586-0.935,0.283-1.402c-0.276-0.46-0.871-0.61-1.33-0.337c-0.017,0.01-0.032,0.017-0.045,0.029  c-0.46,0.312-0.586,0.935-0.283,1.402C692.872,33.87,693.489,34.009,693.953,33.714L693.953,33.714z M673.547,46.992  c0.462-0.315,0.579-0.944,0.263-1.405c-0.308-0.453-0.924-0.578-1.383-0.279c-0.465,0.295-0.603,0.909-0.308,1.374l0,0  C672.447,47.142,673.067,47.275,673.547,46.992z M653.094,60.271c0.462-0.297,0.597-0.908,0.301-1.37  c-0.006-0.009-0.013-0.019-0.019-0.028c-0.276-0.46-0.871-0.61-1.33-0.337c-0.017,0.01-0.032,0.017-0.045,0.029  c-0.459,0.322-0.593,0.944-0.308,1.428C652.006,60.448,652.629,60.574,653.094,60.271z M702.838,85.028  c-0.117-0.54-0.65-0.881-1.192-0.761c-0.539,0.117-0.881,0.65-0.761,1.191c0.116,0.529,0.633,0.869,1.164,0.767  C702.591,86.105,702.941,85.574,702.838,85.028L702.838,85.028z M678.877,89.483c-0.117-0.54-0.65-0.881-1.191-0.761  c-0.539,0.117-0.881,0.65-0.761,1.191c0.116,0.529,0.632,0.869,1.164,0.767C678.628,90.562,678.98,90.029,678.877,89.483  L678.877,89.483z M652.52,7.182c0.305-0.465,0.183-1.089-0.281-1.402c-0.446-0.312-1.058-0.2-1.37,0.245  c-0.002,0.003-0.004,0.006-0.006,0.008c-0.329,0.42-0.254,1.026,0.166,1.356c0.02,0.015,0.04,0.03,0.064,0.048  C651.564,7.734,652.181,7.627,652.52,7.182z M638.708,27.276c0.299-0.469,0.189-1.089-0.252-1.426  c-0.465-0.305-1.091-0.18-1.402,0.281c-0.312,0.456-0.195,1.08,0.261,1.391c0.005,0.004,0.012,0.009,0.015,0.011  c0.446,0.312,1.058,0.2,1.368-0.242C638.704,27.281,638.706,27.279,638.708,27.276z M624.923,47.341  c0.312-0.433,0.219-1.035-0.213-1.347c-0.012-0.009-0.026-0.019-0.039-0.026c-0.443-0.329-1.07-0.232-1.398,0.211  c-0.011,0.015-0.02,0.026-0.03,0.04c-0.313,0.464-0.19,1.093,0.27,1.403c0.464,0.313,1.093,0.19,1.403-0.27  C624.919,47.346,624.921,47.344,624.923,47.341z M706.581,108.629c-0.046-0.49-0.476-0.854-0.968-0.818  c-0.491,0.041-0.858,0.474-0.818,0.968c0.039,0.494,0.474,0.858,0.968,0.818l0,0C706.253,109.55,706.617,109.121,706.581,108.629z   M664.017,28.146c0.309-0.4,0.254-0.968-0.126-1.3c-0.366-0.311-0.912-0.267-1.224,0.098c-0.009,0.012-0.015,0.02-0.024,0.032  c-0.326,0.373-0.287,0.939,0.088,1.261c0.005,0.004,0.008,0.006,0.015,0.011C663.126,28.55,663.682,28.508,664.017,28.146  L664.017,28.146z M650.054,44.771c0.31-0.381,0.251-0.939-0.125-1.249c-0.366-0.311-0.913-0.267-1.224,0.098  c-0.009,0.012-0.015,0.02-0.024,0.032c-0.326,0.373-0.287,0.939,0.085,1.264c0.006,0.004,0.008,0.006,0.015,0.011  C649.176,45.224,649.741,45.158,650.054,44.771L650.054,44.771z M636.069,61.473c0.326-0.373,0.287-0.939-0.085-1.264  c-0.006-0.004-0.008-0.006-0.015-0.011c-0.346-0.315-0.882-0.285-1.197,0.061c-0.02,0.021-0.037,0.044-0.055,0.067  c-0.326,0.373-0.287,0.939,0.085,1.264c0.005,0.004,0.008,0.006,0.015,0.011C635.202,61.895,635.752,61.84,636.069,61.473  L636.069,61.473z M684.199,71.345c0.431-0.244,0.592-0.787,0.357-1.224c-0.227-0.437-0.76-0.608-1.197-0.382  c-0.435,0.236-0.617,0.772-0.409,1.221C683.191,71.407,683.745,71.576,684.199,71.345L684.199,71.345z M664.893,81.386  c0.429-0.205,0.614-0.72,0.409-1.149c-0.008-0.015-0.017-0.031-0.022-0.048c-0.227-0.437-0.76-0.608-1.197-0.382  c-0.435,0.236-0.617,0.772-0.409,1.221C663.912,81.46,664.454,81.62,664.893,81.386L664.893,81.386z M621.265,16.829  c0.151-0.446-0.087-0.927-0.531-1.08c-0.019-0.006-0.035-0.014-0.051-0.016c-0.465-0.161-0.977,0.086-1.139,0.554  c-0.003,0.01-0.008,0.021-0.009,0.029c-0.128,0.476,0.14,0.971,0.611,1.123c0.463,0.151,0.961-0.107,1.111-0.571  C621.258,16.856,621.259,16.842,621.265,16.829L621.265,16.829z M614.738,37.592c0.147-0.476-0.111-0.986-0.585-1.147  c-0.482-0.138-0.989,0.14-1.127,0.623c-0.133,0.459,0.115,0.944,0.565,1.107c0.458,0.165,0.968-0.075,1.132-0.534  C614.73,37.627,614.736,37.609,614.738,37.592L614.738,37.592z M725.277,95.07c0.494-0.292,0.677-0.917,0.411-1.428  c-0.27-0.505-0.894-0.7-1.4-0.435c-0.5,0.287-0.684,0.92-0.411,1.428C724.146,95.14,724.771,95.335,725.277,95.07L725.277,95.07z   M703.115,106.892c0.507-0.268,0.7-0.894,0.435-1.4c-0.265-0.505-0.894-0.7-1.4-0.435c-0.507,0.268-0.7,0.894-0.435,1.4  C701.983,106.964,702.61,107.156,703.115,106.892L703.115,106.892z M644.062,27.384c0.152-0.562-0.159-1.143-0.713-1.325  c-0.559-0.15-1.135,0.184-1.282,0.745c-0.144,0.541,0.163,1.096,0.693,1.266C643.307,28.224,643.881,27.924,644.062,27.384  L644.062,27.384z M636.769,51.409c0.154-0.547-0.145-1.12-0.686-1.301c-0.549-0.169-1.131,0.137-1.301,0.686  c-0.169,0.549,0.137,1.132,0.686,1.301C636.014,52.254,636.592,51.949,636.769,51.409L636.769,51.409z M685.279,63.393  c0.339-0.457,0.272-1.098-0.15-1.479c-0.453-0.346-1.098-0.267-1.454,0.177c-0.367,0.427-0.32,1.072,0.111,1.441  c0.006,0.004,0.012,0.009,0.017,0.013C684.248,63.912,684.908,63.844,685.279,63.393C685.277,63.396,685.279,63.393,685.279,63.393  L685.279,63.393z M669.326,82.819c0.366-0.451,0.299-1.111-0.147-1.477c0,0,0,0-0.003-0.002c-0.433-0.353-1.075-0.286-1.425,0.149  l0,0c-0.362,0.44-0.302,1.09,0.135,1.451C668.316,83.304,668.959,83.246,669.326,82.819L669.326,82.819z M700.891,70.675  c0.366-0.433,0.31-1.084-0.125-1.452c-0.435-0.369-1.084-0.31-1.452,0.125c-0.355,0.424-0.315,1.053,0.095,1.425  C699.849,71.155,700.509,71.11,700.891,70.675L700.891,70.675z M684.228,89.337c0.379-0.437,0.334-1.097-0.101-1.479  c-0.427-0.362-1.066-0.328-1.454,0.074c-0.375,0.444-0.341,1.1,0.073,1.503C683.189,89.805,683.839,89.756,684.228,89.337  L684.228,89.337z M650.78,55.656c0.177-0.547-0.117-1.139-0.661-1.328c-0.535-0.182-1.118,0.101-1.3,0.637  c-0.205,0.518,0.048,1.105,0.566,1.31c0.014,0.006,0.027,0.012,0.044,0.015c0.536,0.205,1.136-0.065,1.338-0.603  C650.773,55.678,650.777,55.668,650.78,55.656L650.78,55.656z" fill="#A1C3FC"/> <g>  <g>   <path d="M555.234,78.757c-3.675,0-6.665-2.99-6.665-6.665s2.99-6.665,6.665-6.665s6.666,2.99,6.666,6.665    C561.9,75.768,558.909,78.757,555.234,78.757z M555.234,66.397c-3.14,0-5.696,2.556-5.696,5.696s2.556,5.696,5.696,5.696    c3.141,0,5.697-2.556,5.697-5.696C560.93,68.952,558.375,66.397,555.234,66.397z" fill="#DAE8FE"/>  </g>  <g>   <path d="M555.234,82.644c-5.818,0-10.551-4.734-10.551-10.552c0-5.818,4.734-10.551,10.551-10.551    c5.819,0,10.553,4.733,10.553,10.551C565.786,77.91,561.052,82.644,555.234,82.644z M555.234,62.51    c-5.284,0-9.582,4.299-9.582,9.582c0,5.284,4.298,9.583,9.582,9.583s9.583-4.299,9.583-9.583    C564.817,66.809,560.517,62.51,555.234,62.51z" fill="#DAE8FE"/>  </g>  <g>   <path d="M555.234,87.016c-8.229,0-14.923-6.695-14.923-14.924s6.695-14.924,14.923-14.924    c8.229,0,14.925,6.695,14.925,14.924C570.158,80.322,563.463,87.016,555.234,87.016z M555.234,58.138    c-7.694,0-13.954,6.26-13.954,13.955s6.26,13.955,13.954,13.955c7.695,0,13.955-6.26,13.955-13.955S562.929,58.138,555.234,58.138    z" fill="#DAE8FE"/>  </g>  <g>   <path d="M555.234,91.874c-10.907,0-19.781-8.874-19.781-19.782s8.874-19.782,19.781-19.782    c10.909,0,19.782,8.874,19.782,19.782C575.016,83,566.142,91.874,555.234,91.874z M555.234,53.28    c-10.373,0-18.812,8.439-18.812,18.812s8.439,18.812,18.812,18.812c10.374,0,18.813-8.439,18.813-18.812    C574.046,61.719,565.607,53.28,555.234,53.28z" fill="#DAE8FE"/>  </g>  <g>   <path d="M555.234,96.247c-13.318,0-24.154-10.835-24.154-24.154s10.835-24.154,24.154-24.154    c13.319,0,24.154,10.835,24.154,24.154C579.388,85.411,568.553,96.247,555.234,96.247z M555.234,48.907    c-12.784,0-23.184,10.4-23.184,23.185c0,12.785,10.4,23.185,23.184,23.185s23.185-10.4,23.185-23.185    C578.418,59.308,568.018,48.907,555.234,48.907z" fill="#DAE8FE"/>  </g> </g> <g>  <g>   <path d="M532.172,64.082c-3.675,0-6.665-2.99-6.665-6.666c0-3.675,2.99-6.665,6.665-6.665    c3.675,0,6.665,2.99,6.665,6.665C538.837,61.092,535.847,64.082,532.172,64.082z M532.172,51.72c-3.14,0-5.696,2.556-5.696,5.696    c0,3.141,2.556,5.696,5.696,5.696s5.696-2.556,5.696-5.696C537.868,54.276,535.312,51.72,532.172,51.72z" fill="#FFFFFF"/>  </g>  <g>   <path d="M532.172,67.968c-5.818,0-10.551-4.734-10.551-10.552c0-5.818,4.734-10.551,10.551-10.551    c5.818,0,10.551,4.733,10.551,10.551S537.989,67.968,532.172,67.968z M532.172,47.834c-5.284,0-9.582,4.299-9.582,9.582    c0,5.284,4.298,9.583,9.582,9.583s9.582-4.299,9.582-9.583C541.754,52.133,537.456,47.834,532.172,47.834z" fill="#FFFFFF"/>  </g>  <g>   <path d="M532.172,72.34c-8.229,0-14.923-6.695-14.923-14.924c0-8.229,6.695-14.923,14.923-14.923    c8.229,0,14.925,6.695,14.925,14.923C547.097,65.646,540.401,72.34,532.172,72.34z M532.172,43.462    c-7.694,0-13.954,6.26-13.954,13.954c0,7.695,6.26,13.955,13.954,13.955c7.695,0,13.955-6.26,13.955-13.955    C546.127,49.722,539.867,43.462,532.172,43.462z" fill="#FFFFFF"/>  </g>  <g>   <path d="M532.172,77.198c-10.909,0-19.782-8.874-19.782-19.782s8.874-19.782,19.782-19.782    c10.908,0,19.782,8.874,19.782,19.782C551.954,68.324,543.08,77.198,532.172,77.198z M532.172,38.604    c-10.374,0-18.813,8.439-18.813,18.812c0,10.374,8.439,18.813,18.813,18.813c10.374,0,18.813-8.439,18.813-18.813    C550.985,47.044,542.545,38.604,532.172,38.604z" fill="#FFFFFF"/>  </g>  <g>   <path d="M532.172,81.571c-13.319,0-24.154-10.835-24.154-24.154c0-13.318,10.835-24.154,24.154-24.154    c13.319,0,24.154,10.835,24.154,24.154C556.326,70.735,545.491,81.571,532.172,81.571z M532.172,34.232    c-12.784,0-23.185,10.4-23.185,23.184c0,12.785,10.401,23.185,23.185,23.185s23.185-10.4,23.185-23.185    C555.357,44.632,544.956,34.232,532.172,34.232z" fill="#FFFFFF"/>  </g> </g> <rect x="320.464" y="97.754" transform="matrix(-0.8422 0.5391 -0.5391 -0.8422 657.2296 15.0649)" width="11.892" height="11.892" fill="#FFFFFF"/> <rect x="408.691" y="183.077" transform="matrix(-0.8422 0.5391 -0.5391 -0.8422 859.9591 121.5099)" width="7.018" height="7.018" fill="#23286B"/> <rect x="517.745" y="305.226" transform="matrix(-0.8422 0.5391 -0.5391 -0.8422 1126.714 287.7424)" width="7.018" height="7.018" fill="#23286B"/> <rect x="111.465" y="48.792" transform="matrix(-0.8422 0.5391 -0.5391 -0.8422 245.8098 37.5419)" width="11.892" height="11.892" fill="#FFFFFF"/> <rect x="199.692" y="134.116" transform="matrix(-0.8422 0.5391 -0.5391 -0.8422 448.5384 143.988)" width="7.018" height="7.018" fill="#23286B"/> <rect x="308.746" y="256.264" transform="matrix(-0.8422 0.5391 -0.5391 -0.8422 715.2943 310.2195)" width="7.018" height="7.018" fill="#23286B"/> <path d="M0.101,0.382C0.083,4.308-0.118,49.594,0.102,73.809c0.207,22.79-1.445,48.394,10.332,63.003  c15.257,18.925,44.117,17.954,68.111,14.05c27.344-4.45,58.99-15.093,66.479-41.766c3.788-13.492,0.137-27.857,0.712-41.86  c0.17-4.139,0.816-8.51,3.456-11.702c3.384-4.091,9.23-5.23,14.529-4.91c20.838,1.259,35.888,19.541,53.582,30.621  c37.603,23.547,91.235,24.388,134.349,13.916c18.945-4.602,34.792-21.073,45.005-37.679c3.794-6.169,5.741-13.338,9.575-19.482  c8.091-12.967,23.678-19.667,38.899-21.064c15.221-1.396,30.442,1.714,45.51,4.277c40.831,6.948,117.294-13.119,144.354-20.833  H0.101z" fill="#428DFC"/> <path d="M57.192,81.378L0,8.793v43.672  c1.382,0.734,1.773,1.658,2.66,2.776l34.137,43.245l0.617,0.879c3.908,4.75,12.543,4.906,17.275,1.145l0.161-0.001  C60.735,95.832,61.861,87.269,57.192,81.378z" fill="#A1C3FC"/> <g>  <path d="M598.898,0c0.413,20.046,16.862,36.353,37.108,36.353S672.7,20.046,673.113,0H598.898z" fill="#DAE8FE"/>  <path d="M639.637,0c0.272,13.825,11.121,23.978,24.475,23.978S688.314,13.825,688.587,0H639.637z" fill="#C3D9FD"/>  <path d="M665.936,0c0.324,16.59,13.231,28.524,29.116,28.524S723.844,16.59,724.168,0H665.936z" fill="#AFCCFC"/> </g> <g>  <path d="M525.258,109.217c0.634,31.106,25.855,55.741,56.897,55.741c31.042,0,56.263-24.635,56.897-55.741   H525.258z" fill="#DAE8FE"/>  <path d="M587.723,109.217c0.418,20.737,17.053,36.765,37.528,36.765s37.11-16.028,37.528-36.765H587.723z" fill="#C3D9FD"/>  <path d="M628.048,109.217c0.497,24.194,20.287,43.737,44.643,43.737c24.357,0,44.146-19.543,44.643-43.737   H628.048z" fill="#AFCCFC"/> </g> <path id="texture-2_9_wsRH2piPo9a11Jk7YrPD4" d="M351.143,103.253c-0.068-0.281-0.355-0.452-0.635-0.384  c-0.281,0.068-0.452,0.355-0.383,0.636c0.068,0.281,0.355,0.452,0.635,0.384l0,0C351.04,103.82,351.214,103.536,351.143,103.253  L351.143,103.253z M318.6,60.375c0.155-0.254,0.074-0.585-0.179-0.739l0,0c-0.227-0.148-0.532-0.084-0.68,0.142  c-0.013,0.017-0.026,0.039-0.032,0.061c-0.153,0.241-0.086,0.557,0.153,0.715C318.113,60.703,318.445,60.628,318.6,60.375  L318.6,60.375L318.6,60.375z M333.685,83.151c0.222-0.194,0.266-0.522,0.102-0.766c-0.18-0.239-0.525-0.287-0.766-0.102  c-0.239,0.18-0.287,0.525-0.102,0.766C333.114,83.268,333.44,83.314,333.685,83.151z M400.534,62.078  c0.46-0.312,0.586-0.935,0.283-1.402c-0.276-0.46-0.871-0.61-1.33-0.337c-0.017,0.01-0.032,0.017-0.045,0.029  c-0.46,0.312-0.586,0.935-0.283,1.402C399.452,62.234,400.069,62.374,400.534,62.078L400.534,62.078z M380.128,75.356  c0.462-0.315,0.579-0.944,0.263-1.405c-0.308-0.453-0.924-0.578-1.383-0.279c-0.465,0.295-0.603,0.909-0.308,1.374l0,0  C379.027,75.507,379.648,75.64,380.128,75.356z M359.675,88.635c0.462-0.297,0.597-0.908,0.301-1.37  c-0.006-0.009-0.013-0.019-0.019-0.028c-0.277-0.46-0.871-0.61-1.33-0.337c-0.017,0.01-0.032,0.017-0.045,0.029  c-0.459,0.322-0.593,0.944-0.308,1.428C358.586,88.813,359.209,88.938,359.675,88.635z M409.418,113.392  c-0.117-0.54-0.65-0.881-1.191-0.761c-0.539,0.117-0.881,0.65-0.761,1.191c0.116,0.529,0.632,0.869,1.164,0.767  C409.171,114.469,409.522,113.938,409.418,113.392L409.418,113.392z M385.457,117.847c-0.117-0.54-0.65-0.881-1.192-0.761  c-0.539,0.117-0.881,0.65-0.761,1.191c0.116,0.529,0.632,0.869,1.164,0.767C385.209,118.927,385.56,118.393,385.457,117.847  L385.457,117.847z M359.101,35.547c0.305-0.465,0.183-1.089-0.281-1.402c-0.446-0.312-1.058-0.2-1.37,0.245  c-0.002,0.003-0.004,0.006-0.006,0.008c-0.329,0.42-0.254,1.026,0.166,1.356c0.02,0.015,0.04,0.03,0.064,0.048  C358.144,36.098,358.762,35.99,359.101,35.547z M345.289,55.641c0.299-0.469,0.189-1.089-0.253-1.426  c-0.465-0.305-1.091-0.18-1.402,0.281c-0.312,0.456-0.195,1.08,0.261,1.391c0.006,0.004,0.012,0.009,0.014,0.011  c0.446,0.312,1.058,0.2,1.368-0.242C345.285,55.646,345.287,55.643,345.289,55.641z M331.503,75.705  c0.312-0.433,0.219-1.035-0.213-1.347c-0.012-0.009-0.026-0.019-0.039-0.026c-0.443-0.329-1.07-0.232-1.398,0.211  c-0.011,0.015-0.02,0.026-0.03,0.04c-0.313,0.464-0.19,1.093,0.27,1.403c0.464,0.313,1.093,0.19,1.403-0.27  C331.499,75.71,331.501,75.707,331.503,75.705z M413.161,136.993c-0.046-0.49-0.476-0.854-0.968-0.818  c-0.491,0.041-0.858,0.473-0.818,0.968c0.039,0.494,0.473,0.858,0.968,0.818l0,0C412.833,137.915,413.197,137.485,413.161,136.993z   M370.597,56.511c0.309-0.4,0.254-0.968-0.126-1.3c-0.366-0.311-0.912-0.267-1.224,0.098c-0.009,0.012-0.015,0.02-0.024,0.032  c-0.326,0.373-0.287,0.939,0.088,1.261c0.006,0.004,0.008,0.006,0.015,0.011C369.707,56.915,370.262,56.872,370.597,56.511  L370.597,56.511z M356.634,73.135c0.31-0.381,0.251-0.939-0.125-1.249c-0.366-0.311-0.912-0.267-1.224,0.098  c-0.009,0.012-0.015,0.02-0.024,0.032c-0.326,0.373-0.287,0.939,0.085,1.264c0.006,0.004,0.008,0.006,0.014,0.011  C355.757,73.589,356.321,73.522,356.634,73.135L356.634,73.135z M342.649,89.838c0.326-0.373,0.287-0.939-0.085-1.264  c-0.006-0.004-0.008-0.006-0.014-0.011c-0.346-0.315-0.882-0.285-1.197,0.061c-0.02,0.021-0.037,0.044-0.055,0.067  c-0.326,0.373-0.287,0.939,0.085,1.264c0.006,0.004,0.008,0.006,0.015,0.011C341.782,90.26,342.333,90.205,342.649,89.838  L342.649,89.838z M390.779,99.71c0.431-0.244,0.592-0.787,0.357-1.224c-0.227-0.437-0.76-0.608-1.197-0.382  c-0.435,0.236-0.617,0.772-0.409,1.221C389.771,99.771,390.325,99.941,390.779,99.71L390.779,99.71z M371.473,109.751  c0.429-0.205,0.614-0.72,0.409-1.149c-0.008-0.015-0.017-0.031-0.022-0.048c-0.227-0.437-0.76-0.608-1.197-0.382  c-0.435,0.236-0.617,0.772-0.409,1.221C370.493,109.824,371.035,109.985,371.473,109.751L371.473,109.751z M327.845,45.194  c0.151-0.446-0.087-0.927-0.531-1.08c-0.019-0.006-0.035-0.014-0.051-0.016c-0.465-0.161-0.977,0.086-1.139,0.554  c-0.003,0.01-0.008,0.021-0.009,0.029c-0.128,0.476,0.14,0.971,0.611,1.123c0.464,0.151,0.961-0.107,1.111-0.571  C327.838,45.221,327.839,45.207,327.845,45.194L327.845,45.194z M321.319,65.957c0.147-0.476-0.111-0.986-0.585-1.147  c-0.482-0.138-0.989,0.14-1.127,0.623c-0.133,0.459,0.115,0.944,0.565,1.107c0.458,0.165,0.968-0.075,1.132-0.534  C321.31,65.992,321.316,65.973,321.319,65.957L321.319,65.957z M431.857,123.435c0.494-0.292,0.677-0.917,0.411-1.428  c-0.27-0.505-0.895-0.7-1.4-0.435c-0.5,0.287-0.684,0.92-0.411,1.428C430.726,123.504,431.351,123.699,431.857,123.435  L431.857,123.435z M409.696,135.256c0.507-0.268,0.7-0.894,0.435-1.4s-0.894-0.7-1.4-0.435c-0.507,0.268-0.7,0.894-0.435,1.4  C408.564,135.328,409.19,135.521,409.696,135.256L409.696,135.256z M350.642,55.748c0.152-0.562-0.159-1.143-0.713-1.325  c-0.559-0.15-1.135,0.184-1.282,0.745c-0.145,0.541,0.163,1.096,0.693,1.266C349.888,56.589,350.461,56.289,350.642,55.748  L350.642,55.748z M343.349,79.773c0.154-0.547-0.145-1.12-0.686-1.301c-0.549-0.169-1.131,0.137-1.301,0.686  c-0.169,0.549,0.137,1.131,0.686,1.301C342.595,80.619,343.172,80.313,343.349,79.773L343.349,79.773z M391.859,91.758  c0.339-0.457,0.272-1.098-0.149-1.479c-0.453-0.346-1.098-0.267-1.454,0.177c-0.367,0.427-0.32,1.072,0.111,1.441  c0.006,0.004,0.012,0.009,0.017,0.013C390.829,92.277,391.488,92.209,391.859,91.758C391.857,91.76,391.859,91.758,391.859,91.758  L391.859,91.758z M375.907,111.184c0.366-0.451,0.299-1.111-0.147-1.477c0,0,0,0-0.003-0.002c-0.433-0.353-1.075-0.286-1.425,0.149  l0,0c-0.362,0.44-0.302,1.09,0.135,1.451C374.897,111.669,375.54,111.611,375.907,111.184L375.907,111.184z M407.471,99.04  c0.366-0.433,0.31-1.084-0.125-1.452c-0.435-0.369-1.084-0.31-1.452,0.125c-0.355,0.424-0.315,1.053,0.095,1.425  C406.43,99.519,407.09,99.475,407.471,99.04L407.471,99.04z M390.808,117.701c0.379-0.437,0.334-1.097-0.101-1.479  c-0.427-0.362-1.066-0.328-1.454,0.074c-0.375,0.444-0.341,1.1,0.073,1.503C389.77,118.169,390.42,118.121,390.808,117.701  L390.808,117.701z M357.361,84.02c0.177-0.547-0.117-1.139-0.661-1.328c-0.535-0.182-1.118,0.101-1.3,0.637  c-0.205,0.518,0.048,1.105,0.566,1.31c0.014,0.006,0.027,0.012,0.044,0.015c0.536,0.205,1.136-0.065,1.338-0.603  C357.354,84.043,357.357,84.032,357.361,84.02L357.361,84.02z" fill="#A1C3FC"/> <g style="opacity:0.47;">  <polygon points="219.985,12.442 316.591,12.442 316.591,8.986 216.922,8.986  " fill="#A1C3FC"/>  <polygon points="231.216,26.959 316.591,26.959 316.591,23.502 228.153,23.502  " fill="#A1C3FC"/>  <polygon points="242.958,42.857 316.591,42.857 316.591,38.71 239.895,38.71  " fill="#A1C3FC"/>  <polygon points="254.189,55.991 316.591,55.991 316.591,53.226 251.126,53.226  " fill="#A1C3FC"/>  <polygon points="265.931,72.581 316.591,72.581 316.591,67.742 262.867,67.742  " fill="#A1C3FC"/>  <polygon points="277.162,87.097 316.591,87.097 316.591,82.258 274.099,82.258  " fill="#A1C3FC"/>  <polygon points="288.903,101.613 316.591,101.613 316.591,98.157 285.84,98.157  " fill="#A1C3FC"/>  <polygon points="300.135,116.13 316.591,116.13 316.591,112.673 297.072,112.673  " fill="#A1C3FC"/> </g> <g>  <path d="M297.393,31.106c0.413,20.046,16.862,36.353,37.108,36.353c20.245,0,36.694-16.307,37.108-36.353   H297.393z" fill="#DAE8FE"/>  <path d="M338.13,31.106c0.272,13.134,11.122,23.978,24.475,23.978c13.353,0,24.203-10.844,24.475-23.978   H338.13z" fill="#C3D9FD"/>  <path d="M364.43,31.106c0.324,16.59,13.23,28.524,29.116,28.524c15.885,0,28.792-11.934,29.116-28.524   H364.43z" fill="#AFCCFC"/> </g> <path d="M133.875,108.548L48.106,0.382H0.095v154.226l0.655,0.827  c4.67,5.891,13.379,7.483,19.265,2.806l0.002-0.002c4.644-3.691,6.353-12.839,3.205-17.063l-6.805-8.691  c-4.67-5.891-3.51-14.133,2.375-18.809l0.002-0.001c5.885-4.677,14.417-4.248,19.087,1.643l15.906,20.799  c3.58,4.115,11.966,4.344,16.514,0.73l0.002-0.002c4.732-3.76,6.445-12.754,2.851-17.265L57.868,99.564  c-4.67-5.892-3.402-14.24,2.484-18.916l0.002-0.001c5.885-4.677,14.318-4.128,18.989,1.763l34.319,43.245l0.708,0.879  c3.908,4.75,12.588,4.906,17.321,1.145l0.002-0.001C137.578,123.001,138.545,114.439,133.875,108.548z" fill="#A1C3FC"/> </g></g>
              </svg>