<?xml version="1.0" encoding="iso-8859-1" ?>
              <svg
                version="1.1"
                xmlns="http://www.w3.org/2000/svg"
                xmlns:xlink="http://www.w3.org/1999/xlink"
                viewBox="0 0 916 610.6666666666666"
                width="916"
                height="610.6666666666666"
              >
                <g transform="translate(0 -82) scale(0.671 0.672) rotate(180 341.2816691505216 203.422619047619)"><g clip-path="url(#clipPath_mibbm2o4-a0y3mJnkE4G4)"><defs>
          <clipPath id="clipPath_mibbm2o4-a0y3mJnkE4G4">
            <rect x="0" y="0" width="682.432" height="407.069" />
          </clipPath>
       </defs> <g>  <path d="M1.767,401.369c-9.2-88.3,18-182.4,70.4-254.1s131.9-123.1,218.9-141.2c34.6-7.2,71-9.3,104.8,1   s64.6,34.2,77,67.3c8.9,23.8,7.8,50.1,12,75.2s16.1,51.9,39.8,61.1c31.2,12.1,60.4-10.2,90.8-12.3c27.3-1.8,52.5,24.5,61.2,48   c9.8,26.4,6.2,56.2-4,82.5c-7.7,19.8-28.4,69.6-50.8,72.4c-7.2,0.9-15.1,0-22.3,0c-27.7,0-55.4,0-83.1,0c-82.5,0-165,0-247.5,0   c-72.8,0-145.7,0-218.5,0C47.767,401.369,1.867,402.169,1.767,401.369z" fill="rgb(214,240,255)"/>  <ellipse cx="297.467" cy="400.069" rx="252.5" ry="7" fill="rgb(3,40,28)"/> </g> </g></g>
              </svg>